<?xml version="1.0" standalone="no"?><!DOCTYPE svg PUBLIC "-//W3C//DTD SVG 1.1//EN" "http://www.w3.org/Graphics/SVG/1.1/DTD/svg11.dtd"><svg t="1659682198473" class="icon" viewBox="0 0 1024 1024" version="1.1" xmlns="http://www.w3.org/2000/svg" p-id="2283" data-spm-anchor-id="a313x.7781069.0.i1" xmlns:xlink="http://www.w3.org/1999/xlink" width="128" height="128"><defs><style type="text/css"></style></defs><path d="M 709.902 257.9 c -85.1811 -83.7085 -220.839 -86.8642 -309.595 -6.73034 c -88.7569 -79.9229 -224.412 -76.9789 -309.595 6.73034 c -42.0639 41.4341 -65.8315 98.2219 -65.8315 157.322 c 0 59.1013 23.7664 115.889 65.8315 157.322 L 350.053 829.557 c 13.2505 13.4606 31.3379 21.0323 50.2672 21.0323 c 18.9291 0 37.0169 -7.57163 50.2672 -21.0323 l 259.327 -256.806 c 42.0639 -41.6439 65.8315 -98.2219 65.8315 -157.533 c 0 -59.1013 -23.7664 -115.679 -65.8315 -157.322 Z m -33.6517 281.621 l -259.327 257.017 c -4.4168 4.4168 -10.3059 6.94067 -16.6157 6.94067 s -12.1988 -2.52389 -16.6157 -6.94067 l -259.54 -257.017 a 174.739 174.739 0 0 1 -51.95 -124.3 c 0 -46.6923 18.7188 -91.4899 51.95 -124.3 c 67.514 -65.8315 174.569 -67.514 244.187 -3.99613 l 31.9694 27.5523 l 31.759 -27.5523 c 70.0385 -63.3072 177.094 -60.9942 244.187 5.25807 c 32.8109 32.8109 51.3187 77.1882 51.3187 123.669 c 0 46.4814 -18.2981 90.8598 -51.3187 123.669 Z m 0 0" fill="#c16a92" p-id="2284"></path><path d="M 241.949 310.479 c -55.1046 0 -99.6937 44.5882 -99.6937 99.6937 c 0 6.51999 5.25807 11.778 11.778 11.778 c 6.51999 0 11.778 -5.25807 11.778 -11.778 c 0 -20.191 7.99229 -39.5412 22.2944 -53.8421 c 14.3019 -14.3019 33.6517 -22.2944 53.8421 -22.2944 c 6.51999 0 11.778 -5.25807 11.778 -11.778 c 0 -6.51999 -5.25807 -11.778 -11.778 -11.778 Z m 0 0" fill="#c16a92" p-id="2285"></path><path d="M 945.898 359.903 l -1.89291 -1.89291 c -71.0902 -70.0385 -184.241 -72.3517 -258.279 -5.67873 c -74.0338 -66.672 -187.188 -64.1485 -258.279 5.67873 c -72.5618 71.5101 -73.4032 188.239 -1.6826 260.803 l 1.6826 1.68261 l 216.422 214.319 c 22.7151 23.1356 59.9422 23.5562 83.0784 0.84129 l 0.84129 -0.84129 l 216.422 -214.319 c 72.3517 -71.2994 73.1929 -188.03 1.68261 -260.591 Z m -70.8788 152.275 c -5.25807 0 -9.67481 -4.4168 -9.67481 -9.67481 c 0 -35.1242 -28.6043 -63.7281 -63.7281 -63.7281 c -2.52389 0 -5.0477 -1.05161 -6.94067 -2.94455 c -1.89291 -1.89291 -2.94455 -4.4168 -2.94455 -6.94067 c 0 -5.46838 4.4168 -9.67481 9.67481 -9.67481 c 45.8506 0 83.2877 37.2275 83.2877 83.2877 c 0 5.25807 -4.20639 9.67481 -9.67481 9.67481 Z" fill="#d4237a" p-id="2286" data-spm-anchor-id="a313x.7781069.0.i0" class="selected"></path></svg>